<svg width="60" height="60" viewBox="0 0 60 60" fill="none" xmlns="http://www.w3.org/2000/svg">
<rect width="60" height="60" rx="10" fill="#F8F6FD"/>
<g clip-path="url(#clip0_1414_35707)">
<path fill-rule="evenodd" clip-rule="evenodd" d="M19.1341 34.3532C19.2275 35.9665 21.7208 35.6865 21.8008 34.3532C21.8008 33.3932 21.5075 32.8599 20.6142 32.8599C20.1208 32.8865 19.0541 32.8332 19.1341 34.3532Z" fill="#FA9874"/>
<path fill-rule="evenodd" clip-rule="evenodd" d="M24.1498 34.3532C24.2432 35.9665 26.7365 35.6865 26.8165 34.3532C26.8165 33.3932 26.5098 32.8599 25.6298 32.8599C25.1232 32.8865 24.0032 32.8332 24.1498 34.3532Z" fill="#FA9874"/>
<path fill-rule="evenodd" clip-rule="evenodd" d="M29.1659 34.3532C29.2592 35.9665 31.7526 35.6865 31.8326 34.3532C31.8326 33.3932 31.5259 32.8599 30.6459 32.8599C30.1393 32.8865 29.0726 32.8332 29.1659 34.3532Z" fill="#FA9874"/>
<path fill-rule="evenodd" clip-rule="evenodd" d="M36.7949 34.3801C36.7949 33.4201 36.5015 32.8867 35.6215 32.8867C35.1549 32.8867 34.0882 32.8867 34.1815 34.3534C34.2749 35.8201 36.7682 35.6601 36.7949 34.3801Z" fill="#FA9874"/>
<path fill-rule="evenodd" clip-rule="evenodd" d="M44.2922 21.9087C44.2922 21.9087 44.5724 21.2284 44.6524 20.975C44.7102 20.7714 44.6904 20.5536 44.5968 20.3638C44.503 20.174 44.3422 20.0258 44.1454 19.9479C43.9673 19.9216 43.7856 19.9317 43.6113 19.9775C43.437 20.0234 43.274 20.104 43.1317 20.2147C42.0213 21.043 40.9777 21.9573 40.0104 22.9491C38.3564 24.5365 36.5957 26.4039 35.782 27.2709L35.702 27.351C35.4485 27.1109 35.2217 26.8041 34.9416 26.5773C34.7922 26.4554 34.6314 26.3482 34.4614 26.2572C33.8097 25.9604 33.0953 25.8276 32.3805 25.8704C32.2516 25.8738 32.1244 25.9028 32.0068 25.9558C31.889 26.0088 31.783 26.0847 31.6949 26.179C31.6068 26.2734 31.5382 26.3843 31.4933 26.5053C31.4485 26.6264 31.4281 26.7551 31.4334 26.8841C31.444 27.1322 31.5125 27.3743 31.6336 27.591C31.8204 27.9646 32.1405 28.3647 32.2872 28.6049L33.0742 29.6453C33.2546 29.8638 33.4461 30.073 33.6477 30.2722C33.6477 30.2722 35.3952 32.4731 38.3697 30.0054C39.4734 28.9846 40.4701 27.8538 41.3444 26.6307L42.4914 25.0167C42.8782 24.4298 43.2652 23.8295 43.6386 23.2026C44.0121 22.5756 44.0788 22.3489 44.2922 21.9087ZM41.3444 24.323L40.3438 25.897C39.5684 27.095 38.6746 28.2122 37.6761 29.2318C37.196 29.6719 35.5818 31.0858 34.248 29.6586C34.0738 29.4843 33.9133 29.2971 33.7678 29.0983L33.1009 28.0846C32.9808 27.8978 32.7674 27.5777 32.6073 27.2709C32.5437 27.1649 32.5029 27.0467 32.4873 26.9241C32.631 26.9353 32.7738 26.9575 32.9141 26.9909C33.2505 27.0638 33.5773 27.1757 33.8878 27.3243C34.3414 27.591 34.6214 28.1246 34.995 28.4714C35.1417 28.6106 35.308 28.7274 35.4885 28.8182C35.6341 28.8771 35.7942 28.8895 35.9472 28.8537C36.1 28.8178 36.238 28.7355 36.3422 28.6182L37.0625 27.9111C38.2097 26.7907 40.384 24.6432 42.078 23.0825C41.8378 23.496 41.5977 23.9095 41.3444 24.323Z" fill="#6A59CE"/>
<path fill-rule="evenodd" clip-rule="evenodd" d="M39.4231 32.2196C39.3636 32.2213 39.3049 32.2348 39.2505 32.2592C39.1961 32.2836 39.1472 32.3185 39.1063 32.3618C39.0655 32.4052 39.0335 32.4561 39.0123 32.5118C38.9912 32.5676 38.9812 32.6269 38.9829 32.6865V35.5276C38.9829 36.1545 38.9829 36.7814 38.8763 37.395C38.8763 37.6218 38.8763 37.982 38.7561 38.3288C38.7456 38.5229 38.686 38.711 38.5828 38.8757L38.6761 38.889C38.7561 39.1958 37.6624 38.889 37.5156 38.889C36.662 38.889 28.8187 39.1558 23.0296 39.0758C21.4161 39.0865 19.8034 38.9974 18.2009 38.809C18.0105 38.7818 17.8229 38.7372 17.6407 38.6756C17.6043 38.5128 17.5776 38.348 17.5607 38.1821C17.4539 36.1545 17.4139 31.5126 17.5607 29.4317C17.5924 29.2234 17.6415 29.0182 17.7074 28.8181C18.3756 28.6649 19.0528 28.5534 19.7349 28.4846C20.5396 28.3801 21.3514 28.34 22.1626 28.3646C23.4965 28.4313 24.8304 28.5248 26.1643 28.5648C27.0529 28.6114 27.9434 28.6114 28.832 28.5648C28.884 28.563 28.9351 28.5509 28.9823 28.529C29.0295 28.5072 29.0718 28.476 29.1067 28.4374C29.1416 28.3988 29.1683 28.3536 29.1853 28.3044C29.2022 28.2552 29.2091 28.2032 29.2055 28.1512C29.2039 28.0974 29.1914 28.0446 29.1688 27.9958C29.1463 27.947 29.1141 27.9033 29.0743 27.8672C29.0344 27.831 28.9877 27.8033 28.9369 27.7857C28.8861 27.768 28.8323 27.7608 28.7787 27.7644C27.9212 27.8109 27.0618 27.8109 26.2043 27.7644C24.8704 27.671 23.6032 27.5242 22.296 27.4042C21.4297 27.3522 20.5611 27.3522 19.6949 27.4042C18.8195 27.4448 17.9492 27.5608 17.0938 27.751C16.9471 27.751 16.6536 27.9778 16.5202 28.4846C16.32 29.4746 16.1908 30.4776 16.1334 31.486C16 33.9002 16 37.0082 16 38.4356C16.0128 38.708 16.0395 38.9796 16.08 39.2492C16.1134 39.4169 16.1972 39.5705 16.3201 39.6894C16.8032 40.0136 17.3663 40.1982 17.9475 40.2229C19.6282 40.4377 21.3221 40.5313 23.0163 40.503C28.792 40.503 36.6353 39.9294 37.4889 39.9294C37.8975 39.9585 38.3076 39.9585 38.7161 39.9294C38.9377 39.9201 39.1495 39.8354 39.3164 39.6894C39.5068 39.4733 39.6479 39.2184 39.7299 38.9424C39.8385 38.4606 39.8967 37.9689 39.9033 37.4752V32.6464C39.8932 32.5273 39.8376 32.4166 39.7483 32.3373C39.6589 32.2578 39.5425 32.2157 39.4231 32.2196Z" fill="#6A59CE"/>
<path fill-rule="evenodd" clip-rule="evenodd" d="M29.1518 23.9754C29.2073 24.0604 29.2697 24.1407 29.3385 24.2154C29.4195 24.2882 29.5089 24.3509 29.6052 24.402C29.6985 24.402 30.7119 24.8687 30.9385 24.6154C30.9385 24.6154 31.2985 24.4287 30.5652 23.282C30.4965 23.1957 30.4208 23.1154 30.3385 23.042L30.0852 22.882C28.9918 22.3487 28.8318 22.4954 28.6852 22.6687C28.5385 22.842 28.4452 23.0154 29.1518 23.9754Z" fill="#FA9874"/>
<path fill-rule="evenodd" clip-rule="evenodd" d="M34.6742 20.6549C34.7001 20.7965 34.7404 20.9351 34.7944 21.0684C35.4613 22.4824 35.6748 22.4023 35.8214 22.4023C35.9681 22.4023 36.2749 22.4023 36.2349 20.8017C36.2085 20.6011 36.1592 20.4042 36.0882 20.2148C36.0486 20.0591 35.995 19.9073 35.9281 19.7612C35.2478 18.4273 34.9944 18.4273 34.7277 18.5341C34.4609 18.6408 34.4209 18.8809 34.5409 20.2148C34.572 20.3652 34.6166 20.5125 34.6742 20.6549Z" fill="#FA9874"/>
<path fill-rule="evenodd" clip-rule="evenodd" d="M46.5866 25.5504C46.4373 25.4767 46.2809 25.4186 46.1197 25.377C45.8675 25.3039 45.6081 25.2591 45.3461 25.2437C45.1726 25.2437 43.5986 25.2437 43.5453 25.6972C43.4919 26.1507 45.0793 26.6976 45.2659 26.7509C45.5989 26.8323 45.9379 26.8858 46.2798 26.911C47.827 26.911 47.7737 26.9777 47.9205 26.7109C48.2539 26.1507 47.4935 25.9773 46.5866 25.5504Z" fill="#FA9874"/>
<path fill-rule="evenodd" clip-rule="evenodd" d="M45.412 31.3396C45.2902 31.1619 45.1565 30.9925 45.0118 30.8328C44.8696 30.6684 44.7134 30.5165 44.5449 30.3792C42.8509 29.0853 42.6774 29.5523 42.6774 29.5523C42.6774 29.5523 42.3573 29.7523 43.4912 31.3529C43.6112 31.5131 43.758 31.6597 43.878 31.8199C43.998 31.9799 44.1714 32.1 44.3448 32.2333C45.6788 33.4072 45.7854 33.4739 46.0789 33.2471C46.3724 33.0204 46.5324 32.9937 45.412 31.3396Z" fill="#FA9874"/>
</g>
<defs>
<clipPath id="clip0_1414_35707">
<rect width="32" height="32" fill="white" transform="translate(16 13.5)"/>
</clipPath>
</defs>
</svg>
