<svg width="20" height="20" viewBox="0 0 20 20" fill="none" xmlns="http://www.w3.org/2000/svg">
<g clip-path="url(#clip0_674_26110)">
<path d="M8.52718 8.52588C9.28313 7.76999 10.3007 7.33357 11.3694 7.30689C12.4381 7.28021 13.4761 7.66532 14.2689 8.38254L14.4197 8.52588L16.7764 10.8834C17.5439 11.6523 17.9807 12.6905 17.9938 13.7769C18.0069 14.8632 17.5952 15.9117 16.8464 16.6988C16.0976 17.486 15.071 17.9495 13.9853 17.9907C12.8997 18.0319 11.8409 17.6474 11.0347 16.9192L10.8847 16.7759L9.11635 15.0075C8.96689 14.8576 8.88012 14.6563 8.87366 14.4447C8.8672 14.2331 8.94153 14.0269 9.08156 13.8681C9.22159 13.7093 9.41681 13.6098 9.62758 13.5897C9.83835 13.5696 10.0489 13.6305 10.2163 13.76L10.2947 13.8292L12.063 15.5975C12.5214 16.0586 13.1414 16.323 13.7915 16.3345C14.4415 16.3461 15.0705 16.104 15.545 15.6595C16.0195 15.215 16.3022 14.6032 16.3331 13.9537C16.364 13.3043 16.1407 12.6684 15.7105 12.1809L15.598 12.0617L13.2414 9.70504C13.0092 9.47285 12.7336 9.28867 12.4302 9.163C12.1269 9.03734 11.8018 8.97266 11.4734 8.97266C11.1451 8.97266 10.82 9.03734 10.5166 9.163C10.2133 9.28867 9.93767 9.47285 9.70552 9.70504C9.54915 9.8613 9.33711 9.94904 9.11606 9.94896C8.895 9.94888 8.68302 9.86099 8.52677 9.70463C8.37051 9.54826 8.28277 9.33623 8.28285 9.11517C8.28293 8.89411 8.37082 8.68213 8.52718 8.52588ZM3.22385 3.22254C3.97979 2.46666 4.99735 2.03024 6.06604 2.00356C7.13474 1.97688 8.1728 2.36198 8.96552 3.07921L9.11635 3.22254L10.8839 4.99171C11.0333 5.14168 11.1201 5.34291 11.1265 5.55453C11.133 5.76616 11.0587 5.97231 10.9186 6.13111C10.7786 6.28992 10.5834 6.38947 10.3726 6.40954C10.1619 6.42962 9.95134 6.36872 9.78385 6.23921L9.70552 6.17004L7.93802 4.40254C7.47882 3.94634 6.86059 3.68603 6.21338 3.67636C5.56617 3.66669 4.94043 3.90842 4.46782 4.3507C3.9952 4.79298 3.71255 5.40133 3.67933 6.04776C3.64611 6.69419 3.8649 7.32831 4.28968 7.81671L4.40218 7.93671L6.75968 10.2942C7.2285 10.7629 7.86427 11.0262 8.52718 11.0262C9.19009 11.0262 9.82586 10.7629 10.2947 10.2942C10.3721 10.2168 10.4639 10.1554 10.565 10.1134C10.6661 10.0715 10.7745 10.0499 10.884 10.0499C10.9934 10.0498 11.1018 10.0714 11.203 10.1132C11.3041 10.1551 11.396 10.2164 11.4734 10.2938C11.5509 10.3712 11.6123 10.463 11.6542 10.5641C11.6961 10.6652 11.7177 10.7736 11.7178 10.8831C11.7178 10.9925 11.6963 11.1009 11.6544 11.2021C11.6126 11.3032 11.5512 11.3951 11.4738 11.4725C10.7179 12.2284 9.70035 12.6649 8.63166 12.6915C7.56296 12.7182 6.5249 12.3331 5.73218 11.6159L5.58052 11.4725L3.22385 9.11504C2.44272 8.33368 2.00391 7.27406 2.00391 6.16921C2.00391 5.06436 2.44272 4.00391 3.22385 3.22254Z" fill="#A3A3A3"/>
</g>
<defs>
<clipPath id="clip0_674_26110">
<rect width="20" height="20" fill="white"/>
</clipPath>
</defs>
</svg>
